<svg width="33" height="27" viewBox="0 0 33 27" fill="none" xmlns="http://www.w3.org/2000/svg">
<mask id="mask0_1510_9" style="mask-type:alpha" maskUnits="userSpaceOnUse" x="0" y="0" width="33" height="27">
<path d="M29.4739 7.34806C29.4935 7.63019 29.4935 7.91232 29.4935 8.19712C29.4935 16.8721 22.8894 26.8771 10.8135 26.8771V26.8718C7.24603 26.8769 3.75249 25.8552 0.75 23.9287C1.26876 23.9911 1.79 24.0222 2.31267 24.0234C5.2694 24.0258 8.14108 23.034 10.4663 21.2076C9.0963 21.1817 7.76868 20.7283 6.66901 19.9109C5.56933 19.0935 4.75258 17.9529 4.33293 16.6485C5.31654 16.8382 6.33055 16.7995 7.29684 16.5354C4.23409 15.9166 2.03053 13.2256 2.03053 10.1002V10.017C2.94358 10.5256 3.96543 10.8074 5.01009 10.8387C2.12547 8.91072 1.23622 5.07304 2.97809 2.0725C4.62632 4.10077 6.68279 5.75962 9.01391 6.94131C11.345 8.12299 13.8987 8.80108 16.5089 8.93153C16.2487 7.81124 16.2871 6.64226 16.6204 5.54149C16.9537 4.44072 17.5702 3.44676 18.4081 2.65899C21.0524 0.173304 25.2112 0.30077 27.6968 2.94361C29.1671 2.65334 30.577 2.11435 31.8659 1.34984C31.3758 2.86995 30.3502 4.16027 28.9799 4.98077C30.2813 4.82744 31.5523 4.47906 32.75 3.94735C31.8689 5.26681 30.7595 6.41831 29.4739 7.34806Z" fill="white"/>
</mask>
<g mask="url(#mask0_1510_9)">
<path d="M28.8388 -8.90283H4.66105C-1.22999 -8.90283 -6.00562 -4.1272 -6.00562 1.76383V25.9416C-6.00562 31.8326 -1.22999 36.6083 4.66105 36.6083H28.8388C34.7299 36.6083 39.5055 31.8326 39.5055 25.9416V1.76383C39.5055 -4.1272 34.7299 -8.90283 28.8388 -8.90283Z" fill="white"/>
<path d="M28.8388 -8.90283H4.66105C-1.22999 -8.90283 -6.00562 -4.1272 -6.00562 1.76383V25.9416C-6.00562 31.8326 -1.22999 36.6083 4.66105 36.6083H28.8388C34.7299 36.6083 39.5055 31.8326 39.5055 25.9416V1.76383C39.5055 -4.1272 34.7299 -8.90283 28.8388 -8.90283Z" fill="white"/>
</g>
</svg>
